The.Double.PL.2011.BRRip.XviD-RLF
~~~~~~~~~~~~~~~~~~~~~~~~~~~~~~~~~
                                            
Complete name: rlf-double-pl.avi
Format: AVI
Format/Info: Audio Video Interleave
File size: 698 GiB
Duration: 1h 38mn
Overall bit rate: 992 Kbps
Language: Polish
Subs: English 
Encoder: Ralf

Video:

Format: MPEG-4 Visual
Format profile: Advanced Simple@L5
Format settings, BVOP: 2
Format settings, QPel: No
Format settings, GMC: No warppoints
Format settings, Matrix: H.263
Muxing mode: Packed bitstream
Codec ID: XVID
Duration: 1h 38mn
Bit rate: 853 Kbps
Width: 688 pixels
Height: 288 pixels
Display aspect ratio: 2.35:1
Frame rate: 23.976 fps
Color space: YUV
Chroma subsampling: 4:2:0
Bit depth: 8 bits
Scan type: Progressive
Bits/(Pixel*Frame): 0.180
Stream size: 600 MiB (86%)
Stream size: Xvid 64

Audio:

Format: MPEG Audio
Codec ID/Hint: MP3
Duration: 1h 38mn
Bit rate: 128 Kbps
Channel(s): 2 channels
Sampling rate: 48.0 KHz
Stream size: 90.0 MiB (13%)
Alignment: Split accross interleaves
Interleave, duration: 42 ms (1.00 video frame)
Interleave, preload duration: 504 ms
                   
MOVIE INFO:

W tajemniczych okolicznosciach zostaje zamordowany amerykanski senator. 
Akcje przeprowadzono w sposob perfekcyjny, a pewne poszlaki wskazuja, 
ze sprawca jest legendarny sowiecki agent o pseudonimie Cassius. 
Problem polega na tym, ze Cassius dawno temu zginal...  Zabil go Paul 
Shepherdson, emerytowany agent CIA, ktory znaczna czesc zycia poswiecil 
na rozpracowanie agenta. Teraz na polecenie swojego zwierzchnika wraca 
do sluzby, aby znow tropic swojego odwiecznego wroga. 
                                           
http://www.imdb.com/title/tt1646980/ 
http://www.filmweb.pl/film/Druga+twarz-2011-568195

SOURCE:

REFiNED's 720p.BluRay.x264 / lib32's AC3 5.1 (THX)

SCREENS:
 
http://www.postimg.com/63000/photo-62920.jpg 
http://www.postimg.com/63000/photo-62921.jpg 
http://www.postimg.com/63000/photo-62922.jpg 
http://www.postimg.com/63000/photo-62923.jpg 
http://www.postimg.com/63000/photo-62924.jpg